<svg width="86" height="84" viewBox="0 0 86 84" fill="none" xmlns="http://www.w3.org/2000/svg">
<path d="M44.5622 83.9821C35.4736 83.9821 28.0212 83.9821 20.5286 83.9821C17.0818 83.9821 13.6886 83.5614 10.6084 81.8382C3.90254 78.0876 0.102577 72.4706 0.0489306 64.6918C-0.0404804 51.7123 0.0131662 38.7327 0.0489306 25.7263C0.0614648 20.6584 2.06513 15.7989 5.62697 12.1978C9.18881 8.59665 14.0229 6.5431 19.0846 6.48081C21.6864 6.44948 24.2928 6.48081 26.8946 6.48081C27.1863 6.52033 27.482 6.44624 27.7208 6.27386C27.9595 6.10147 28.1231 5.84395 28.1777 5.55437C29.3311 2.02751 31.8346 0.111893 35.5675 0.0537084C40.5477 -0.0179028 45.5308 -0.0179028 50.517 0.0537084C54.3483 0.111893 56.6998 1.9559 57.9024 5.67074C58.1304 6.36895 58.5506 6.47185 59.1541 6.46737C61.6442 6.46737 64.1343 6.46737 66.6289 6.46737C76.0528 6.54346 83.7019 12.814 85.6377 22.0518C85.8887 23.2168 86.0175 24.4048 86.0221 25.5966C86.0221 38.6567 86.0221 51.7183 86.0221 64.7813C86.0221 74.9457 77.7963 83.4182 67.6258 83.83C59.3821 84.1746 51.1652 83.8568 44.5622 83.9821ZM43.1272 77.2462H62.0868C63.4637 77.2462 64.8272 77.2059 66.2041 77.0806C73.3034 76.4137 79.209 70.1298 79.2358 62.9776C79.2835 51.108 79.2835 39.2385 79.2358 27.3689C79.2001 19.8945 72.7401 13.4092 65.2788 13.2481C62.2656 13.1854 59.2525 13.2481 56.2438 13.2078C54.4869 13.2078 53.8476 12.6976 53.329 11.0461C52.994 9.81243 52.2626 8.72358 51.2477 7.94776C50.2327 7.17195 48.9909 6.75233 47.714 6.75382C44.5175 6.71354 41.3211 6.70907 38.1246 6.75382C36.9067 6.78854 35.7304 7.20562 34.7621 7.94613C33.7938 8.68663 33.0825 9.71315 32.7287 10.8805C32.1341 12.7603 31.5618 13.1944 29.5993 13.2078C26.6979 13.2078 23.7876 13.1809 20.8996 13.2436C13.5545 13.4047 7.0409 19.8274 7.00514 27.172C6.92019 39.1534 6.95596 51.1349 7.00514 63.1209C7.00514 67.2296 8.83804 70.5595 11.7841 73.3299C14.7302 76.1004 18.2262 77.2328 22.1648 77.2373C29.1508 77.2522 36.1382 77.2551 43.1272 77.2462Z" fill="#EF4118"/>
<path d="M42.9841 25.8828C45.5261 25.8573 48.0478 26.338 50.4026 27.2972C52.7573 28.2563 54.898 29.6748 56.7002 31.4698C58.5023 33.2649 59.93 35.4008 60.9 37.7534C61.87 40.1059 62.3631 42.6281 62.3505 45.1731C62.3844 47.7407 61.9081 50.2894 60.949 52.671C59.99 55.0525 58.5674 57.2194 56.7642 59.0454C54.9609 60.8714 52.8129 62.3202 50.4451 63.3074C48.0774 64.2946 45.5372 64.8006 42.9723 64.7958C40.4075 64.7911 37.8692 64.2758 35.5051 63.2798C33.1411 62.2838 30.9984 60.8271 29.2019 58.9944C27.4054 57.1617 25.9909 54.9896 25.0406 52.6045C24.0904 50.2194 23.6234 47.6689 23.6668 45.1015C23.6614 42.566 24.1582 40.0545 25.1286 37.7124C26.099 35.3704 27.5236 33.2442 29.32 31.4569C31.1165 29.6697 33.2491 28.2568 35.5945 27.3C37.9399 26.3432 40.4515 25.8615 42.9841 25.8828ZM42.9841 34.6686C40.9007 34.681 38.8677 35.3115 37.1421 36.4804C35.4165 37.6492 34.0757 39.304 33.2892 41.2355C32.5028 43.1671 32.3059 45.2887 32.7235 47.3322C33.1411 49.3757 34.1545 51.2494 35.6355 52.7165C37.1165 54.1836 38.9987 55.1782 41.0442 55.5747C43.0897 55.9711 45.2066 55.7515 47.1275 54.9437C49.0484 54.1359 50.687 52.7761 51.8361 51.0362C52.9853 49.2963 53.5934 47.2545 53.5837 45.1686C53.5844 43.7797 53.3097 42.4045 52.7756 41.1227C52.2415 39.8409 51.4586 38.6779 50.4722 37.7012C49.4859 36.7246 48.3157 35.9536 47.0296 35.433C45.7434 34.9124 44.3668 34.6526 42.9796 34.6686H42.9841Z" fill="#EF4118"/>
</svg>
