<svg width="100" height="101" viewBox="0 0 100 101" fill="none" xmlns="http://www.w3.org/2000/svg">
<path d="M10.113 90.4928H90.617C92.017 90.4928 93.189 89.4968 93.461 88.1768H7.27002C7.54202 89.4978 8.71402 90.4928 10.113 90.4928Z" fill="#F6B8C8"/>
<path d="M22.7881 35.1096H25.5011H26.5171C27.1581 35.1096 27.6781 34.5886 27.6781 33.9486C27.6781 33.3086 27.1571 32.7876 26.5171 32.7876H22.7881C22.8901 33.1086 22.9541 33.5086 22.9541 33.9486C22.9541 34.3886 22.8911 34.7876 22.7881 35.1096Z" fill="#F6B8C8"/>
<path d="M21.5879 35.1096H22.3599H22.7879C22.8899 34.7886 22.9539 34.3886 22.9539 33.9486C22.9539 33.5086 22.8909 33.1086 22.7879 32.7876H22.3599H21.5879C21.4859 33.1086 21.4219 33.5086 21.4219 33.9486C21.4219 34.3886 21.4849 34.7876 21.5879 35.1096Z" fill="white"/>
<path d="M22.7937 80.0105H26.5177C27.1587 80.0105 27.6787 79.4895 27.6787 78.8495C27.6787 78.2095 27.1577 77.6885 26.5177 77.6885H25.5017H22.7827C22.8877 78.0125 22.9537 78.4175 22.9537 78.8655C22.9537 79.2985 22.8927 79.6915 22.7937 80.0105Z" fill="#F6B8C8"/>
<path d="M21.5819 80.0105H22.3599H22.7939C22.8929 79.6915 22.9539 79.2985 22.9539 78.8655C22.9539 78.4175 22.8879 78.0115 22.7829 77.6885H22.3599H21.5929C21.4879 78.0125 21.4219 78.4175 21.4219 78.8655C21.4219 79.2985 21.4829 79.6915 21.5819 80.0105Z" fill="white"/>
<path d="M24.252 75.1889V37.6099H21.189C21.189 42.4849 21.189 69.5939 21.189 75.1889H24.252Z" fill="#F6B8C8"/>
<path d="M51.6108 35.1096H54.7108H55.7268C56.2998 35.1096 56.7548 34.6856 56.8488 34.1406V33.7576C56.7538 33.2116 56.2988 32.7886 55.7268 32.7886H51.6108C51.7128 33.1096 51.7768 33.5096 51.7768 33.9496C51.7768 34.3886 51.7128 34.7876 51.6108 35.1096Z" fill="#F6B8C8"/>
<path d="M50.4101 35.1096H51.1821H51.6101C51.7121 34.7886 51.7761 34.3886 51.7761 33.9486C51.7761 33.5086 51.7131 33.1086 51.6101 32.7876H51.1821H50.4101C50.3081 33.1086 50.2441 33.5086 50.2441 33.9486C50.2441 34.3886 50.3081 34.7876 50.4101 35.1096Z" fill="white"/>
<path d="M51.616 80.0109H55.726C56.299 80.0109 56.754 79.5869 56.848 79.0419V78.6589C56.753 78.1129 56.298 77.6899 55.726 77.6899H54.71H51.605C51.71 78.0139 51.776 78.4189 51.776 78.8669C51.777 79.2989 51.715 79.6919 51.616 80.0109Z" fill="#F6B8C8"/>
<path d="M50.4051 80.0105H51.1831H51.6171C51.7161 79.6915 51.7771 79.2985 51.7771 78.8655C51.7771 78.4175 51.7111 78.0115 51.6061 77.6885H51.1831H50.4161C50.3111 78.0125 50.2451 78.4175 50.2451 78.8655C50.2441 79.2985 50.3061 79.6915 50.4051 80.0105Z" fill="white"/>
<path d="M53.4607 75.1889V37.6099H50.0107C50.0107 42.4849 50.0107 69.5939 50.0107 75.1889H53.4607Z" fill="#F6B8C8"/>
<path d="M81.0391 35.1096H83.9201H84.9361C85.5771 35.1096 86.0971 34.5886 86.0971 33.9486C86.0971 33.3086 85.5761 32.7876 84.9361 32.7876H81.0391C81.1411 33.1086 81.2051 33.5086 81.2051 33.9486C81.2041 34.3886 81.1411 34.7876 81.0391 35.1096Z" fill="#F6B8C8"/>
<path d="M79.8379 35.1096H80.6099H81.0379C81.1399 34.7886 81.2039 34.3886 81.2039 33.9486C81.2039 33.5086 81.1409 33.1086 81.0379 32.7876H80.6099H79.8379C79.7359 33.1086 79.6719 33.5086 79.6719 33.9486C79.6719 34.3886 79.7359 34.7876 79.8379 35.1096Z" fill="white"/>
<path d="M83.9197 77.6885H81.0327C81.1377 78.0125 81.2037 78.4175 81.2037 78.8655C81.2037 79.2985 81.1427 79.6915 81.0437 80.0105H84.9347C85.5757 80.0105 86.0957 79.4895 86.0957 78.8495C86.0957 78.2095 85.5747 77.6885 84.9347 77.6885H83.9197Z" fill="#F6B8C8"/>
<path d="M81.0329 77.6885H80.6099H79.8429C79.7379 78.0125 79.6719 78.4175 79.6719 78.8655C79.6719 79.2985 79.7329 79.6915 79.8319 80.0105H80.6099H81.0439C81.1429 79.6915 81.2039 79.2985 81.2039 78.8655C81.2039 78.4175 81.1379 78.0115 81.0329 77.6885Z" fill="white"/>
<path d="M82.67 75.1889V37.6099H79.439C79.439 42.4849 79.439 69.5939 79.439 75.1889H82.67Z" fill="#F6B8C8"/>
<path d="M50.7469 15.1797C53.8649 15.5457 56.2929 18.2007 56.2929 21.4147C56.2929 24.8787 53.4749 27.6957 50.0109 27.6957C47.1289 27.6957 44.6999 25.7427 43.9629 23.0917C44.5219 26.2497 47.2739 28.6507 50.5929 28.6507C54.3149 28.6507 57.3329 25.6327 57.3329 21.9107C57.3329 18.2417 54.3979 15.2617 50.7469 15.1797Z" fill="#F6B8C8"/>
<path d="M95.9679 30.6628C96.2199 29.4518 95.5919 28.2908 94.4039 27.7718L51.1879 8.8988C50.4389 8.5728 49.5809 8.5728 48.8339 8.8988H48.8349L5.61991 27.7728C4.43191 28.2918 3.80291 29.4528 4.05591 30.6628C4.31691 31.9138 5.44491 32.7878 6.79691 32.7878H11.6319C11.5079 33.1548 11.4249 33.5408 11.4249 33.9488C11.4249 35.8868 12.9439 37.4628 14.8519 37.5858V75.2118C12.9439 75.3358 11.4249 76.9108 11.4249 78.8488C11.4249 79.2568 11.5079 79.6428 11.6319 80.0098H10.1129C7.13391 80.0098 4.70991 82.4338 4.70991 85.4128V87.5888C4.70991 90.5678 7.13391 92.9918 10.1129 92.9918H90.6169C93.5959 92.9918 96.0209 90.5678 96.0209 87.5888V85.4138C96.0209 82.4348 93.5959 80.0108 90.6169 80.0108H88.3899C88.5139 79.6438 88.5969 79.2578 88.5969 78.8498C88.5969 76.9118 87.0779 75.3358 85.1699 75.2128V37.5858C87.0779 37.4618 88.5969 35.8868 88.5969 33.9488C88.5969 33.5408 88.5139 33.1548 88.3899 32.7878H93.2259C94.5789 32.7868 95.7059 31.9128 95.9679 30.6628ZM13.9259 33.9478C13.9259 33.3068 14.4469 32.7868 15.0869 32.7868H21.5879H22.3599H22.7879H26.5169C27.1579 32.7868 27.6779 33.3078 27.6779 33.9478C27.6779 34.5878 27.1569 35.1088 26.5169 35.1088H25.5009H22.7879H22.3599H21.5879H16.1029H15.0869C14.4459 35.1098 13.9259 34.5888 13.9259 33.9478ZM80.6099 32.7868H81.0379H84.9349C85.5759 32.7868 86.0959 33.3078 86.0959 33.9478C86.0959 34.5878 85.5749 35.1088 84.9349 35.1088H83.9199H81.0389H80.6099H79.8379H74.5209H73.5049C72.8639 35.1088 72.3439 34.5878 72.3439 33.9478C72.3439 33.3078 72.8649 32.7868 73.5049 32.7868H79.8369H80.6099ZM86.0959 78.8498C86.0959 79.4908 85.5749 80.0108 84.9349 80.0108H81.0439H80.6099H79.8319H73.5049C72.8639 80.0108 72.3439 79.4898 72.3439 78.8498C72.3439 78.2098 72.8649 77.6888 73.5049 77.6888H74.5209H79.8429H80.6099H81.0329H83.9199H84.9359C85.5759 77.6888 86.0959 78.2088 86.0959 78.8498ZM82.6699 37.6098V75.1888H79.4389H75.7709V37.6098H79.4389H82.6699ZM73.2709 37.5858V75.2118C71.3629 75.3358 69.8439 76.9108 69.8439 78.8488C69.8439 79.2568 69.9269 79.6428 70.0509 80.0098H59.1809C59.3049 79.6428 59.3879 79.2568 59.3879 78.8488C59.3879 76.9108 57.8689 75.3348 55.9609 75.2118V37.5858C57.8689 37.4618 59.3879 35.8868 59.3879 33.9488C59.3879 33.5408 59.3049 33.1548 59.1809 32.7878H70.0509C69.9269 33.1548 69.8439 33.5408 69.8439 33.9488C69.8439 35.8868 71.3639 37.4618 73.2709 37.5858ZM43.1349 78.8498C43.1349 78.2088 43.6559 77.6888 44.2959 77.6888H45.3109H50.4149H51.1819H51.6049H54.7099H55.7259C56.2989 77.6888 56.7539 78.1128 56.8479 78.6578C56.8589 78.7228 56.8869 78.7818 56.8869 78.8498C56.8869 78.9178 56.8589 78.9768 56.8479 79.0418C56.7529 79.5878 56.2979 80.0108 55.7259 80.0108H51.6159H51.1819H50.4039H44.2959C43.6559 80.0108 43.1349 79.4898 43.1349 78.8498ZM53.4609 37.6098V75.1888H50.0109H46.5609V37.6098H50.0109H53.4609ZM51.1829 32.7868H51.6109H55.7269C56.2999 32.7868 56.7549 33.2108 56.8489 33.7558C56.8599 33.8208 56.8879 33.8798 56.8879 33.9478C56.8879 34.0158 56.8599 34.0748 56.8489 34.1398C56.7539 34.6858 56.2989 35.1088 55.7269 35.1088H54.7109H51.6109H51.1829H50.4099H45.3109H44.2959C43.6549 35.1088 43.1349 34.5878 43.1349 33.9478C43.1349 33.3078 43.6559 32.7868 44.2959 32.7868H50.4099H51.1829ZM44.0609 37.5858V75.2128C42.1539 75.3368 40.6349 76.9118 40.6349 78.8498C40.6349 79.2578 40.7179 79.6438 40.8419 80.0108H29.9719C30.0959 79.6438 30.1789 79.2578 30.1789 78.8498C30.1789 76.9118 28.6599 75.3358 26.7519 75.2128V37.5858C28.6599 37.4618 30.1789 35.8868 30.1789 33.9488C30.1789 33.5408 30.0959 33.1548 29.9719 32.7878H40.8419C40.7179 33.1548 40.6349 33.5408 40.6349 33.9488C40.6349 35.8858 42.1539 37.4618 44.0609 37.5858ZM17.3519 37.6098H21.1879H24.2509V75.1888H21.1879H17.3519V37.6098ZM13.9259 78.8498C13.9259 78.2088 14.4469 77.6888 15.0869 77.6888H16.1029H21.5939H22.3609H22.7839H25.5029H26.5189C27.1599 77.6888 27.6799 78.2098 27.6799 78.8498C27.6799 79.4898 27.1589 80.0108 26.5189 80.0108H22.7949H22.3599H21.5819H15.0859C14.4459 80.0108 13.9259 79.4898 13.9259 78.8498ZM90.6169 82.5108C92.2189 82.5108 93.5209 83.8138 93.5209 85.4138V87.5898C93.5209 87.7908 93.4999 87.9878 93.4609 88.1778C93.1879 89.4978 92.0169 90.4938 90.6169 90.4938H10.1129C8.71391 90.4938 7.54191 89.4978 7.26991 88.1778C7.23091 87.9878 7.20991 87.7918 7.20991 87.5898V85.4138C7.20991 83.8128 8.51291 82.5108 10.1129 82.5108H15.0869H26.5179H44.2969H55.7269H73.5059H84.9359H90.6169ZM84.9349 30.2868H73.5049H55.7259H44.2959H26.5169H15.0869H6.79691C6.67091 30.2868 6.57591 30.2568 6.50091 30.1418C6.50591 30.1318 6.53791 30.0988 6.61991 30.0628L49.8349 11.1898H49.8359C49.8889 11.1658 49.9499 11.1538 50.0109 11.1538C50.0719 11.1538 50.1329 11.1658 50.1879 11.1888L93.4029 30.0638C93.4849 30.0998 93.5169 30.1328 93.4929 30.2028C93.4469 30.2578 93.3519 30.2878 93.2259 30.2878H84.9349V30.2868Z" fill="#264657"/>
<path d="M50.011 25.1958C52.097 25.1958 53.793 23.4998 53.793 21.4148C53.793 19.3288 52.097 17.6328 50.011 17.6328C47.925 17.6328 46.229 19.3288 46.229 21.4148C46.229 23.4998 47.926 25.1958 50.011 25.1958Z" fill="white"/>
<path d="M50.011 27.6958C53.475 27.6958 56.293 24.8788 56.293 21.4148C56.293 18.1998 53.865 15.5458 50.747 15.1798C50.505 15.1518 50.26 15.1328 50.011 15.1328C46.547 15.1328 43.729 17.9508 43.729 21.4148C43.729 21.9968 43.815 22.5578 43.963 23.0918C44.7 25.7428 47.129 27.6958 50.011 27.6958ZM50.011 17.6328C52.097 17.6328 53.793 19.3288 53.793 21.4148C53.793 23.4998 52.097 25.1958 50.011 25.1958C47.925 25.1958 46.229 23.4998 46.229 21.4148C46.229 19.3288 47.926 17.6328 50.011 17.6328Z" fill="#264657"/>
</svg>
