<svg width="137" height="147" viewBox="0 0 137 147" fill="none" xmlns="http://www.w3.org/2000/svg">
<path d="M15.8804 32.8806C15.6437 32.8955 15.4712 32.9062 15.2996 32.9186C17.0529 31.8985 18.9066 31.1511 20.7915 30.3967C20.8312 30.8208 20.373 30.6978 20.3104 30.9835C25.8752 30.6019 28.967 33.9532 31.4055 38.2687C31.883 39.115 32.2988 39.9964 32.7102 40.8775C32.9265 41.34 33.2376 41.4584 33.7262 41.3943C37.421 40.9103 41.0496 40.1239 44.5933 38.967C50.9324 36.8968 56.8352 33.9668 62.2777 30.0919C63.0402 29.5494 63.6194 28.9776 64.1236 28.2069C65.7559 25.712 68.2493 24.3647 70.9787 23.4269C75.1318 22.0011 79.4099 21.1429 83.7895 20.8178C86.549 20.6136 89.2598 20.8014 91.8708 21.8127C95.2034 23.1028 98.3334 26.3295 97.8004 30.773C97.7159 31.4732 98.1252 31.5769 98.6173 31.7191C101.131 32.4499 103.291 33.7107 104.733 35.9549C106.01 37.9455 106.563 40.1358 105.974 42.4634C105.743 43.3774 106.024 43.757 106.71 44.2611C110.077 46.726 111.942 49.9821 111.637 54.2556C111.475 56.4966 110.63 58.4897 109.057 60.1276C108.594 60.6088 108.588 60.9299 109.031 61.4153C115.929 68.9535 114.003 78.4694 108.375 84.5072C103.147 90.1135 96.4876 92.4317 88.9418 92.4575C87.4766 92.4628 86.0074 92.3893 84.5461 92.2699C83.7661 92.2071 83.5893 92.3363 83.7977 93.1521C85.9731 101.676 86.8276 110.332 86.1338 119.122C85.9157 121.88 85.4776 124.622 84.2722 127.162C82.8571 130.147 80.7592 132.437 77.39 133.182C73.7924 133.976 70.6781 132.361 69.0979 129.063C68.1207 127.021 67.5795 124.858 67.1713 122.652C65.793 115.202 63.4235 108.07 60.0974 101.282C55.0246 90.9281 48.1449 81.9358 39.2698 74.5111C37.9228 73.384 36.4443 72.4322 34.8766 71.6248C34.3008 71.3277 34.043 71.4324 33.8276 72.0765C32.9532 74.682 31.8581 77.1811 29.9561 79.2429C28.3361 80.9988 26.3697 82.0343 23.9495 82.12C21.3712 82.2102 18.9675 80.6749 17.857 78.4724C14.988 72.7857 18.4872 67.5483 24.0445 65.7279C25.0351 65.4031 26.0477 65.1494 27.0879 65.009C27.9142 64.8971 28.6926 65.0009 29.4946 65.2239C30.5734 65.5249 30.7256 65.3979 30.8956 64.2919C31.7131 58.9539 31.479 53.67 30.1235 48.447C29.5286 46.154 29.7968 46.5242 27.6323 46.5846C24.9777 46.661 22.3512 46.545 19.8005 45.7283C16.1743 44.5689 13.6886 41.595 13.5499 38.202C13.4635 36.0845 14.3322 34.3574 15.8837 32.8834L15.8804 32.8806ZM97.3825 68.8429C97.8917 68.6236 98.4027 68.4036 98.9119 68.1843C100.542 67.4823 101.781 67.8821 102.406 69.3199C103.005 70.6952 102.516 71.7645 100.911 72.4958C95.0671 75.1652 88.9502 76.5777 82.514 76.446C79.4066 76.3822 76.4305 75.7615 73.7209 74.1649C68.9879 71.3761 68.1912 66.0885 70.5103 62.5089C70.742 62.1504 70.7863 61.9065 70.3646 61.6406C67.2176 59.6471 65.9211 54.8483 67.847 51.2322C68.0789 50.7951 68.0345 50.5534 67.6204 50.28C64.1025 47.9457 63.2633 43.1536 65.34 39.5362C65.6129 39.0603 65.5837 38.725 65.2017 38.3381C64.4879 37.6169 63.9159 36.7838 63.5369 35.8442C63.2731 35.1921 62.9789 35.2319 62.4416 35.5841C59.5489 37.4851 56.5273 39.1659 53.3719 40.5905C47.661 43.1685 41.7157 44.9694 35.5078 45.8485C34.6555 45.9695 34.463 46.2157 34.6806 47.0827C36.2323 53.2667 36.5654 59.5132 35.4178 65.8184C35.3138 66.3891 35.437 66.7051 36.018 66.9299C37.2658 67.4105 38.4121 68.0961 39.5367 68.8206C43.4562 71.3447 46.7113 74.6045 49.8214 78.0179C57.6706 86.6266 63.7562 96.3108 67.7661 107.277C69.5639 112.195 71.0552 117.183 71.8049 122.377C72.0436 124.026 72.4697 125.619 73.2828 127.087C73.9424 128.277 75.0977 128.869 76.2931 128.565C77.524 128.253 78.5789 127.657 79.3143 126.551C80.3971 124.925 80.8051 123.088 81.0313 121.212C81.6746 115.87 81.752 110.522 81.2028 105.17C80.764 100.897 79.8798 96.714 78.7535 92.5778C78.5196 91.7178 78.1124 91.223 77.1467 91.0408C75.1615 90.6656 73.219 90.1024 71.4 89.1869C69.1367 88.0471 67.3817 86.4828 66.712 83.9123C65.5884 79.599 68.9173 75.8284 73.3493 76.4521C75.7375 76.7873 77.4553 78.1811 78.8127 80.0503C80.1207 81.8496 81.0586 83.8443 81.65 85.9904C81.888 86.855 82.2882 87.3337 83.2954 87.4387C85.5703 87.6743 87.839 87.8659 90.1251 87.7361C95.7265 87.4151 100.725 85.6085 104.741 81.5673C108.612 77.6735 109.81 71.9957 107.644 67.5711C105.838 63.8824 102.707 61.6382 98.9506 60.1659C95.8485 58.9505 92.6224 58.6558 89.3358 59.0128C84.8288 59.503 80.4482 60.4944 76.5325 62.9123C75.05 63.8285 73.8355 65.0598 74.0392 67.0186C74.2498 69.0233 75.5311 70.1809 77.3288 70.8637C78.4638 71.2954 79.6444 71.5208 80.8538 71.615C86.5884 72.0638 92.087 71.0829 97.3771 68.8452L97.3825 68.8429ZM78.0793 48.5989C76.5918 49.4537 75.1172 50.0314 73.9205 51.0663C72.5436 52.2573 71.4763 53.6225 71.6501 55.5815C71.7549 56.7558 72.5705 57.7534 73.6152 57.8019C74.6093 57.8468 75.6491 57.8444 76.5932 57.4612C79.3491 56.3423 82.1631 55.4274 85.0802 54.8414C91.4715 53.561 97.6643 53.8803 103.498 57.0604C104.716 57.7254 104.961 57.6794 105.879 56.6266C106.64 55.7539 106.989 54.7258 106.953 53.5727C106.913 52.2368 106.467 51.0271 105.734 49.9301C104.192 47.6211 101.883 46.4351 99.2463 45.9884C91.8996 44.743 84.8778 46.3521 78.0801 48.6007L78.0793 48.5989ZM73.9832 38.0517C72.493 38.3307 71.3649 39.6733 70.1581 40.8186C69.1064 41.8187 68.6577 43.1741 69.0468 44.6671C69.5109 46.4481 71.0593 47.1216 72.5914 46.2265C73.4078 45.7498 74.2303 45.2874 75.1022 44.9098C78.0175 43.6459 81.0512 42.7658 84.1385 42.0599C89.6316 40.8036 95.1498 40.2894 100.709 41.5434C101.441 41.7093 101.502 41.2847 101.462 40.7969C101.308 38.8696 100.272 37.5472 98.5421 36.7502C97.2622 36.1604 95.8994 35.8586 94.5025 35.6607C90.9481 35.1532 87.4121 35.4712 83.8754 35.8766C80.6034 36.2528 77.3214 36.5908 73.9806 38.0506L73.9832 38.0517ZM71.4736 28.0682C70.4483 28.5055 69.5442 29.0857 68.7588 29.8374C67.2858 31.2459 67.1699 33.3593 68.4521 34.8558C68.7791 35.2388 69.0702 35.4443 69.6065 35.1095C71.9613 33.6437 74.5684 32.8328 77.253 32.2218C82.1806 31.0988 87.1693 30.6577 92.2075 30.8465C93.0253 30.8782 93.2667 30.5918 93.1778 29.8454C93.0391 28.6963 92.5486 27.7453 91.6324 27.0243C90.4705 26.1143 89.1181 25.6533 87.674 25.4947C82.0405 24.8794 76.8035 26.7698 71.4754 28.0674L71.4736 28.0682ZM27.1455 40.5507C26.4725 39.4089 25.5843 38.0545 24.3456 36.9761C23.3054 36.071 22.1084 35.4857 20.6872 35.7118C19.6722 35.871 18.7058 36.2172 18.3304 37.3417C18.0294 38.2475 18.4895 39.6082 19.342 40.3099C19.9003 40.7694 20.5432 41.0736 21.2365 41.2819C23.0048 41.812 24.8256 41.8699 26.6511 41.8791C27.6835 41.8841 27.7328 41.7908 27.1447 40.5489L27.1455 40.5507ZM25.0665 70.4094C23.933 70.8976 23.0955 71.4491 22.3849 72.1814C21.6051 72.9858 21.3285 73.9533 21.5145 75.0439C21.8774 77.1695 23.5161 77.9484 25.409 76.8958C25.9529 76.5937 26.4097 76.1785 26.8198 75.7093C28.1179 74.2214 28.6726 72.3792 29.3306 70.5837C29.4896 70.1505 29.2915 69.9728 28.8803 69.959C27.5139 69.9112 26.1451 69.8432 25.0665 70.4094ZM76.9912 86.4993C77.3247 87.5412 77.7842 88.3656 77.964 89.2785C78.227 90.6223 78.8867 91.5004 80.4261 91.4843C81.0674 91.4775 81.7167 91.6432 82.352 91.7811C83.0366 91.9295 83.1693 91.6582 82.9965 91.0688C82.6944 90.0452 82.3959 89.0201 82.0955 87.9957C82.009 87.6957 81.8518 87.4644 81.5252 87.3993C80.0714 87.1092 78.6141 86.8206 76.9912 86.4993ZM33.1054 42.563C32.965 42.0932 32.7572 41.7543 32.153 41.8173C31.0522 41.9308 29.9463 41.9977 28.8409 42.0707C28.4176 42.0982 28.2847 42.2254 28.4154 42.6824C29.4219 46.2233 29.6557 46.3898 33.1935 45.9374C33.258 45.9287 33.322 45.9139 33.3878 45.9131C33.921 45.9083 34.0735 45.6432 33.92 45.1579C33.6461 44.294 33.3776 43.4277 33.1054 42.563ZM76.2181 85.1844C75.8043 84.4167 75.4414 83.6186 74.9647 82.8929C74.4743 82.1454 73.9804 81.355 73.062 81.0252C72.4689 80.8119 71.9261 80.859 71.4607 81.3584C71.0131 81.8396 71.0276 82.3487 71.3155 82.8737C71.484 83.1808 71.6846 83.4782 71.9079 83.749C72.8856 84.9249 74.2579 85.422 75.6602 85.8552C75.8909 85.9254 76.1784 86.1473 76.3774 85.8962C76.5613 85.6644 76.2792 85.4253 76.2199 85.1836L76.2181 85.1844Z" fill="#F9C900"/>
</svg>
