<svg width="110" height="110" viewBox="0 0 110 110" fill="none" xmlns="http://www.w3.org/2000/svg">
<path d="M12.7651 33.1028C11.6744 32.4984 10.4786 32.4064 9.08565 32.84C9.07251 32.84 9.07251 32.84 9.05937 32.84C9.03309 32.8532 8.99366 32.8663 8.96738 32.8795C8.3629 33.0634 7.94239 33.4182 7.65329 33.9963C6.85169 35.5994 7.24592 38.3718 7.67957 40.2376L16.2606 37.5703C15.6561 36.1644 14.5391 34.0752 12.7651 33.1028Z" fill="white"/>
<path d="M92.1101 59.4089L92.1233 59.5797L93.4374 59.8688L93.4899 59.7637L96.1838 54.2713V54.2582L91.8867 53.3779L92.1101 59.4089Z" fill="#F6ADBF"/>
<path d="M87.1822 73.7173L86.3937 73.9669L48.377 85.7794C48.8632 87.4744 49.3625 90.1943 48.6135 92.6646L87.3924 80.6024C91.0587 79.4724 93.3978 77.7511 94.3703 75.5306C95.0404 73.9801 94.9353 72.4296 94.6988 71.3784L87.1822 73.7173Z" fill="white"/>
<path d="M104.66 14.1826L100.35 13.0657C100.192 13.0263 100.048 13 99.903 13C99.5745 13 99.246 13.092 98.9569 13.2759C98.5495 13.5256 98.2604 13.9461 98.1553 14.4191L90.1262 52.7867C90.0999 52.9312 90.0867 53.0757 90.0999 53.2203L90.3364 59.4879L90.4547 62.3917C90.481 63.2064 91.0592 63.8896 91.8608 64.0604C91.979 64.0867 92.1104 64.0999 92.2287 64.0999C92.8989 64.0999 93.5165 63.7319 93.8188 63.1144L95.0803 60.5522L97.7873 55.0467C97.853 54.9153 97.8925 54.7839 97.9319 54.6262L105.961 16.2718C106.145 15.3388 105.58 14.4191 104.66 14.1826ZM92.2287 62.326L92.2024 61.5639L92.255 62.2735L92.2287 62.326ZM96.1841 54.2714L93.4902 59.7638L93.4377 59.8689L92.1236 59.5798L92.1105 59.409L91.8871 53.378L96.1841 54.2583V54.2714ZM99.8899 14.8395L99.903 14.787L100.875 15.0366L99.8899 14.8395Z" fill="#264657"/>
<path d="M47.9303 70.0126C48.1537 70.7089 48.7976 71.1426 49.4941 71.1426C49.6649 71.1426 49.8357 71.1163 50.0197 71.0506L74.8429 62.6938C75.7102 62.3916 76.1702 61.4587 75.8811 60.5915C75.592 59.7374 74.659 59.2644 73.7917 59.5666L48.9684 67.9234C48.1011 68.2124 47.628 69.1453 47.9303 70.0126Z" fill="#F6ADBF"/>
<path d="M45.7753 70.7361C45.0788 68.6863 42.858 67.5826 40.808 68.279C38.7449 68.9622 37.6411 71.196 38.3375 73.2457C39.034 75.2955 41.2548 76.3992 43.3048 75.7029C45.3548 75.0196 46.4586 72.7859 45.7753 70.7361Z" fill="#F6ADBF"/>
<path d="M44.3295 59.3435C44.566 60.0267 45.2099 60.4735 45.8933 60.4735C46.0641 60.4735 46.2481 60.4341 46.4189 60.3815L71.2553 52.0116C72.1226 51.7225 72.5825 50.7896 72.2934 49.9224C72.0043 49.0683 71.0582 48.5953 70.204 48.8844L45.3676 57.2543C44.5003 57.5433 44.0404 58.4763 44.3295 59.3435Z" fill="#F6ADBF"/>
<path d="M95.2642 67.8572L87.406 70.3012L72.307 21.8029C72.2676 21.6715 72.215 21.5401 72.1362 21.435C71.7025 20.0422 70.1388 15.877 66.7615 14.0112C64.8824 12.9731 62.8061 12.7892 60.5721 13.4856L8.13979 29.7918C8.10036 29.8049 8.06094 29.8181 8.02152 29.8312C7.9821 29.8444 7.92953 29.8575 7.89011 29.8838C6.52345 30.3305 5.45903 31.2503 4.81513 32.5511C2.93597 36.2828 4.86769 42.1167 5.09109 42.7606C5.31448 43.4176 5.93211 43.838 6.6023 43.838C6.75999 43.838 6.91768 43.8117 7.07537 43.7592L17.2465 40.6057L32.3848 89.0908C32.4111 89.1827 32.4505 89.2616 32.49 89.3404C32.5031 89.3536 32.5031 89.3667 32.5031 89.3798C32.8579 90.7989 34.1851 95.0693 37.4441 97.0139C38.5348 97.6709 39.7306 97.9994 40.9921 97.9994C41.8069 97.9994 42.661 97.8549 43.5415 97.5921L88.339 83.651C92.9251 82.2188 95.9476 79.9193 97.3011 76.7921C99.0751 72.7188 97.2485 68.8558 97.1697 68.6981C96.828 67.9886 96.0133 67.6338 95.2642 67.8572ZM7.67985 40.2378C7.2462 38.372 6.85197 35.5995 7.65357 33.9965C7.94267 33.4183 8.36318 33.0636 8.96767 32.8796C8.99395 32.8665 9.03337 32.8533 9.05965 32.8402C9.07279 32.8402 9.07279 32.8402 9.08593 32.8402C10.4789 32.4066 11.6747 32.4986 12.7654 33.103C14.5394 34.0753 15.6564 36.1645 16.2609 37.5704L7.67985 40.2378ZM44.8819 85.3854C44.895 85.4248 46.6165 89.5638 45.3549 92.3231C44.8556 93.3874 43.962 94.1101 42.5953 94.5437C42.2143 94.662 41.8463 94.7408 41.4915 94.7802C40.5979 94.8722 39.7963 94.7014 39.0736 94.2809C37.7332 93.4794 36.787 91.8632 36.2088 90.4441C35.9197 89.7346 35.7095 89.0645 35.6044 88.5915C35.6044 88.4338 35.5912 88.263 35.5387 88.1053L19.9272 38.096L19.8221 38.1354C19.7958 38.0303 19.7301 37.8332 19.6381 37.5442C19.1782 36.1514 17.8509 32.8665 15.2622 30.9218L61.5183 16.534C62.9112 16.1004 64.1071 16.1923 65.1978 16.7968C67.5763 18.1107 68.7852 21.4088 69.0875 22.4074C69.1532 22.5782 69.1795 22.6833 69.1795 22.6964C69.1795 22.7227 69.1926 22.7359 69.2057 22.7621L69.1532 22.7753L84.2521 71.2866L45.8674 83.2305C45.4338 83.3619 45.079 83.6773 44.895 84.0846C44.6979 84.4919 44.6979 84.9649 44.8819 85.3854ZM94.3706 75.5307C93.3982 77.7513 91.0591 79.4726 87.3928 80.6026L48.6139 92.6647C49.3629 90.1945 48.8636 87.4746 48.3774 85.7796L86.3941 73.9671L87.1826 73.7175L94.6992 71.3786C94.9357 72.4298 95.0408 73.9802 94.3706 75.5307Z" fill="#264657"/>
<path d="M40.8217 48.9234C41.0582 49.6067 41.689 50.0403 42.3854 50.0403C42.5563 50.0403 42.7403 50.014 42.9111 49.9615L67.7475 41.5915C68.6016 41.3025 69.0747 40.3696 68.7856 39.5023C68.4834 38.6351 67.5503 38.1752 66.683 38.4643L41.8598 46.8211C40.9925 47.1233 40.5326 48.0562 40.8217 48.9234Z" fill="#F6ADBF"/>
<path d="M39.7169 65.0323C41.7669 64.3491 42.8707 62.1153 42.1742 60.0656C41.4909 58.0158 39.2569 56.9121 37.2069 57.5953C35.157 58.2917 34.0531 60.5123 34.7364 62.5752C35.4329 64.625 37.6537 65.7287 39.7169 65.0323Z" fill="#F6ADBF"/>
<path d="M45.868 83.2304L84.2526 71.2866L69.1537 22.7752L69.2063 22.7621C69.1931 22.7358 69.18 22.7226 69.18 22.6964C69.18 22.6832 69.1537 22.5781 69.088 22.4073C68.7858 21.4087 67.5768 18.1106 65.1983 16.7967C64.1076 16.1923 62.9118 16.1003 61.5188 16.5339L15.2627 30.9217C17.8515 32.8664 19.1787 36.1513 19.6386 37.5441C19.7306 37.8332 19.7963 38.0303 19.8226 38.1354L19.9277 38.096L35.5392 88.1052C35.5917 88.2629 35.6049 88.4337 35.6049 88.5914C35.71 89.0644 35.9203 89.7345 36.2094 90.4441C36.7876 91.8632 37.7337 93.4793 39.0741 94.2808C39.7968 94.7013 40.5984 94.8721 41.492 94.7801C41.8468 94.7407 42.2148 94.6619 42.5959 94.5436C43.9625 94.11 44.8561 93.3873 45.3555 92.323C46.617 89.5637 44.8955 85.4248 44.8824 85.3853C44.6984 84.9649 44.6984 84.4918 44.8955 84.0845C45.0795 83.6772 45.4343 83.3618 45.868 83.2304ZM75.8819 60.5909C76.171 61.4581 75.711 62.3911 74.8437 62.6933L50.0205 71.05C49.8365 71.1157 49.6657 71.142 49.4948 71.142C48.7984 71.142 48.1545 70.7084 47.9311 70.012C47.6288 69.1448 48.1019 68.2119 48.9692 67.9228L73.7925 59.566C74.6598 59.2638 75.5928 59.7369 75.8819 60.5909ZM70.205 48.8836C71.0591 48.5945 72.0053 49.0675 72.2944 49.9216C72.5835 50.7888 72.1236 51.7217 71.2562 52.0108L46.4199 60.3807C46.249 60.4333 46.0651 60.4727 45.8942 60.4727C45.2109 60.4727 44.567 60.0259 44.3305 59.3427C44.0414 58.4755 44.5013 57.5425 45.3686 57.2535L70.205 48.8836ZM68.7858 39.5019C69.0749 40.3691 68.6018 41.302 67.7476 41.5911L42.9112 49.961C42.7404 50.0136 42.5564 50.0398 42.3856 50.0398C41.6891 50.0398 41.0584 49.6062 40.8218 48.923C40.5327 48.0558 40.9927 47.1229 41.86 46.8206L66.6832 38.4639C67.5505 38.1748 68.4835 38.6347 68.7858 39.5019ZM38.3513 36.4009L63.1746 28.0442C64.0419 27.742 64.9749 28.215 65.264 29.0822C65.5662 29.9363 65.0931 30.8823 64.2258 31.1714L39.4026 39.5282C39.2318 39.5939 39.0478 39.6201 38.877 39.6201C38.1805 39.6201 37.5366 39.1865 37.3132 38.4901C37.0241 37.6229 37.484 36.69 38.3513 36.4009ZM27.7203 41.7225C27.0238 39.6727 28.1277 37.439 30.1908 36.7557C32.2408 36.0593 34.4616 37.163 35.1581 39.2128C35.8414 41.2757 34.7376 43.4963 32.6876 44.1927C30.6376 44.876 28.4168 43.7723 27.7203 41.7225ZM31.2289 52.1422C30.5456 50.0924 31.6495 47.8718 33.6994 47.1754C35.7494 46.4922 37.9702 47.5959 38.6667 49.6457C39.3632 51.6954 38.2593 53.916 36.1962 54.6124C34.1462 55.3088 31.9254 54.2051 31.2289 52.1422ZM34.7376 62.575C34.0542 60.5121 35.1581 58.2915 37.2081 57.5951C39.2581 56.9118 41.492 58.0156 42.1753 60.0653C42.8718 62.1151 41.768 64.3489 39.718 65.0321C37.6549 65.7285 35.434 64.6248 34.7376 62.575ZM43.3055 75.7015C41.2555 76.3979 39.0347 75.2941 38.3382 73.2444C37.6417 71.1946 38.7456 68.9609 40.8087 68.2776C42.8587 67.5812 45.0795 68.6849 45.776 70.7347C46.4593 72.7845 45.3555 75.0182 43.3055 75.7015Z" fill="white"/>
<path d="M38.8767 39.6215C39.0475 39.6215 39.2315 39.5952 39.4023 39.5295L64.2255 31.1727C65.0928 30.8836 65.5659 29.9376 65.2637 29.0835C64.9746 28.2163 64.0416 27.7433 63.1743 28.0455L38.351 36.4023C37.4837 36.6913 37.0238 37.6242 37.3129 38.4915C37.5363 39.1879 38.1802 39.6215 38.8767 39.6215Z" fill="#F6ADBF"/>
<path d="M36.1959 54.6129C38.259 53.9165 39.3629 51.6959 38.6664 49.6461C37.9699 47.5963 35.7491 46.4926 33.6991 47.1759C31.6491 47.8723 30.5453 50.0929 31.2286 52.1426C31.9251 54.2056 34.1459 55.3093 36.1959 54.6129Z" fill="#F6ADBF"/>
<path d="M32.6866 44.1931C34.7366 43.4967 35.8405 41.2761 35.1571 39.2132C34.4607 37.1634 32.2398 36.0597 30.1899 36.7561C28.1267 37.4394 27.0229 39.6731 27.7194 41.7229C28.4158 43.7727 30.6367 44.8764 32.6866 44.1931Z" fill="#F6ADBF"/>
</svg>
