<svg width="97" height="117" viewBox="0 0 97 117" fill="none" xmlns="http://www.w3.org/2000/svg">
<g clip-path="url(#clip0_3964_189)">
<path d="M80.7637 116.616C80.987 116.696 81.1496 116.754 81.3122 116.811C79.2983 117.054 77.3001 117.008 75.2706 116.955C75.4019 116.55 75.7741 116.844 75.9445 116.606C70.6826 114.756 69.1683 110.455 68.6355 105.527C68.5316 104.561 68.4983 103.587 68.469 102.615C68.4533 102.105 68.2143 101.873 67.7402 101.738C64.1552 100.722 60.5115 100.009 56.7992 99.6698C50.1582 99.064 43.5779 99.4205 37.0466 100.827C36.1317 101.024 35.3736 101.32 34.6056 101.828C32.1197 103.474 29.2968 103.725 26.419 103.507C22.0406 103.174 17.7719 102.27 13.6208 100.837C11.0055 99.9328 8.5901 98.6881 6.59191 96.7266C4.04129 94.2236 2.44275 90.0221 4.68972 86.1517C5.0443 85.542 4.70931 85.2849 4.31359 84.9596C2.29386 83.2942 0.808938 81.282 0.372081 78.6505C-0.0138427 76.3169 0.344655 74.0866 1.80607 72.1816C2.38006 71.4337 2.27231 70.974 1.84133 70.2396C-0.276349 66.6439 -0.701452 62.9157 1.2693 59.1115C2.30366 57.1169 3.8689 55.621 5.96111 54.7386C6.57624 54.4795 6.70945 54.1873 6.49396 53.566C3.14015 43.9143 8.67237 35.9359 16.2302 32.6168C23.2493 29.5352 30.2821 30.0397 37.2229 33.0005C38.5707 33.5751 39.891 34.2237 41.1859 34.9113C41.8775 35.2775 42.091 35.2288 42.2222 34.3971C43.5955 25.7077 46.2343 17.4196 50.3482 9.62035C51.6392 7.17384 53.1261 4.82862 55.2379 2.97232C57.718 0.790716 60.5507 -0.483183 63.9398 0.165454C67.558 0.858891 69.7795 3.5742 69.9265 7.22839C70.0166 9.48985 69.6581 11.6909 69.1605 13.8784C67.4797 21.2666 66.8352 28.7542 67.2054 36.3041C67.7696 47.8198 70.5318 58.7999 75.7467 69.1293C76.5381 70.6974 77.5195 72.1563 78.6401 73.5179C79.0515 74.0185 79.3297 74.0243 79.7822 73.5179C81.6158 71.4707 83.6101 69.6085 86.1725 68.4671C88.3548 67.4951 90.5704 67.3217 92.8272 68.2002C95.2309 69.1371 96.8314 71.4979 96.9803 73.96C97.3662 80.3178 92.0808 83.7441 86.2567 83.2182C85.2184 83.1247 84.188 82.9572 83.1771 82.6748C82.374 82.4507 81.7001 82.0475 81.0516 81.5255C80.1799 80.8223 79.9899 80.8788 79.3963 81.8274C76.5342 86.4068 74.6594 91.3525 73.8386 96.6857C73.4781 99.027 73.3782 98.5809 75.3901 99.3815C77.8585 100.361 80.2249 101.507 82.2447 103.266C85.1166 105.765 86.2234 109.479 85.0088 112.65C84.2507 114.629 82.7697 115.872 80.7617 116.612L80.7637 116.616ZM20.1306 51.3513C19.5762 51.3513 19.0198 51.3513 18.4654 51.3513C16.6906 51.3513 15.7111 50.4942 15.7052 48.9262C15.6993 47.4263 16.5711 46.6374 18.3342 46.6004C24.7577 46.4602 30.9345 47.5821 36.7939 50.2488C39.6227 51.5363 42.1106 53.2835 43.9677 55.8216C47.2118 60.2549 45.8523 65.4265 42.3065 67.797C41.9519 68.0347 41.8148 68.2411 42.0969 68.6521C44.1989 71.7278 43.4917 76.6481 40.2926 79.2076C39.9067 79.5173 39.8519 79.7569 40.1242 80.1718C42.4319 83.7071 41.3074 88.4404 37.9693 90.9415C37.5304 91.2706 37.4247 91.5901 37.6225 92.0965C37.9928 93.0412 38.1887 94.0327 38.1652 95.0456C38.1495 95.7488 38.4355 95.8286 39.0683 95.7176C42.4769 95.1157 45.9169 94.767 49.3785 94.7067C55.6434 94.5976 61.8162 95.2949 67.8656 96.9428C68.6962 97.1688 68.9705 97.0188 69.1135 96.1364C70.1341 89.8429 72.2988 83.974 75.8466 78.6368C76.1678 78.1538 76.1796 77.8148 75.7349 77.3785C74.7789 76.4436 73.9973 75.3605 73.2509 74.2503C70.6493 70.3818 68.9489 66.1004 67.4424 61.7353C63.6381 50.724 61.8789 39.4226 62.5332 27.7646C62.827 22.5366 63.4304 17.365 64.7958 12.2987C65.2288 10.6897 65.4678 9.05742 65.3013 7.38811C65.1661 6.03435 64.3394 5.03315 63.1209 4.84031C61.8671 4.63968 60.6623 4.77019 59.5496 5.49479C57.9119 6.56027 56.8109 8.08544 55.8608 9.7197C53.1574 14.3712 50.9712 19.2525 49.3589 24.3851C48.0718 28.4834 47.2295 32.6752 46.628 36.9196C46.5027 37.802 46.6809 38.4175 47.4959 38.9668C49.1708 40.0965 50.7322 41.3821 52.0408 42.9424C53.6687 44.8844 54.6619 47.0153 54.2603 49.641C53.5864 54.0471 49.0376 56.1936 45.2136 53.8679C43.1528 52.6154 42.1263 50.6559 41.6189 48.4022C41.1291 46.2323 41.0566 44.0293 41.3622 41.8243C41.4857 40.9361 41.3074 40.3381 40.4239 39.8433C38.4277 38.7272 36.4197 37.6539 34.2687 36.8689C28.997 34.9483 23.692 34.6308 18.4047 36.754C13.3093 38.7993 9.96336 43.5403 10.2024 48.4606C10.4022 52.5628 12.3906 55.8625 15.2585 58.7005C17.627 61.0438 20.4734 62.5904 23.6333 63.5624C27.9666 64.8947 32.3822 65.7167 36.9349 65.0447C38.6588 64.7895 40.2613 64.1389 40.849 62.2593C41.4484 60.3348 40.7295 58.7648 39.3484 57.4266C38.4766 56.5812 37.4815 55.9073 36.4079 55.3424C31.3184 52.6622 25.8803 51.3883 20.1365 51.3513H20.1306ZM29.8531 77.5792C31.5574 77.3824 33.1403 77.435 34.6487 76.9578C36.3844 76.4085 37.9046 75.5768 38.5197 73.7088C38.888 72.5887 38.5334 71.3499 37.5931 70.8922C36.6979 70.4578 35.7419 70.0487 34.7232 70.0273C31.7494 69.965 28.8031 69.6923 25.892 69.0768C19.5155 67.7249 13.9538 64.9824 9.85365 59.7543C8.99757 58.6616 8.75465 58.607 7.49501 59.2109C6.45086 59.7115 5.72408 60.5179 5.30093 61.5911C4.80922 62.8339 4.74066 64.1214 4.97965 65.4187C5.48312 68.1496 7.13456 70.152 9.37957 71.6051C15.6347 75.6547 22.7204 76.9539 29.8531 77.5772V77.5792ZM29.4437 88.8865C30.9227 89.2195 32.4899 88.4326 34.0513 87.858C35.4128 87.3554 36.3609 86.288 36.594 84.7628C36.8722 82.9436 35.7164 81.7125 33.9553 81.9287C33.0169 82.0436 32.0785 82.143 31.1284 82.1449C27.9509 82.1527 24.8165 81.7612 21.7017 81.1885C16.1597 80.1698 10.888 78.4596 6.27847 75.1093C5.67118 74.6671 5.44786 75.0333 5.29114 75.4969C4.67013 77.3279 5.09915 78.9524 6.3725 80.3685C7.31479 81.4164 8.44709 82.2326 9.65187 82.9669C12.7158 84.8388 16.0892 85.9452 19.4978 86.9717C22.6518 87.9203 25.7999 88.9079 29.4456 88.8884L29.4437 88.8865ZM27.8001 99.0484C28.9147 99.0523 29.9746 98.877 30.9932 98.4972C32.9033 97.7862 33.8456 95.891 33.2598 94.0093C33.1109 93.5282 32.9248 93.2243 32.2999 93.3198C29.5573 93.7347 26.8421 93.4483 24.1348 92.9477C19.1648 92.0303 14.4083 90.4623 9.85561 88.2963C9.11707 87.9437 8.78208 88.1112 8.56855 88.8319C8.24139 89.9422 8.31583 91.0096 8.87219 92.0342C9.57939 93.3295 10.6392 94.2879 11.9028 95.0047C16.8336 97.7979 22.3913 98.1329 27.7981 99.0484H27.8001ZM73.4507 105.116C73.6172 106.431 73.8974 108.026 74.6085 109.506C75.206 110.749 76.0738 111.76 77.4686 112.115C78.4638 112.37 79.4883 112.434 80.2778 111.55C80.9125 110.837 81.0281 109.405 80.5227 108.423C80.1916 107.781 79.7215 107.247 79.1671 106.781C77.7527 105.595 76.1032 104.822 74.4302 104.091C73.484 103.678 73.4017 103.745 73.4507 105.118V105.116ZM87.1696 78.5141C88.4038 78.5141 89.3911 78.3388 90.3334 77.9473C91.3677 77.5168 92.0044 76.7377 92.265 75.6625C92.7723 73.5666 91.5754 72.2031 89.4205 72.4212C88.8014 72.4836 88.2177 72.6842 87.6554 72.953C85.8747 73.8062 84.6366 75.2787 83.3221 76.6676C83.0048 77.0026 83.1164 77.2441 83.4886 77.4194C84.7248 78.0038 85.955 78.6076 87.1696 78.5141ZM45.8425 43.1995C45.9483 42.1106 45.8523 41.1717 46.0482 40.2621C46.3381 38.9239 46.0795 37.8565 44.6592 37.2624C44.0676 37.015 43.5367 36.606 43.0078 36.2281C42.4377 35.821 42.2085 36.0177 42.1341 36.6274C42.0068 37.687 41.8755 38.7467 41.7462 39.8063C41.707 40.116 41.7599 40.3907 42.0342 40.5796C43.2546 41.4211 44.479 42.2626 45.8425 43.1995ZM68.7726 100.911C68.7158 101.398 68.7726 101.791 69.3525 101.972C70.4084 102.303 71.4506 102.679 72.4947 103.049C72.8943 103.192 73.0667 103.127 73.1275 102.656C73.6035 99.0056 73.4546 98.7602 70.0264 97.7765C69.9637 97.759 69.899 97.7473 69.8383 97.7219C69.3466 97.5155 69.1017 97.6986 69.0508 98.205C68.9607 99.1069 68.8647 100.009 68.7726 100.911ZM46.0325 44.713C46.1089 45.5817 46.1265 46.4582 46.2774 47.3133C46.4321 48.1938 46.5732 49.1151 47.2863 49.7813C47.7466 50.2118 48.2638 50.3832 48.8887 50.1085C49.4901 49.8436 49.6782 49.3703 49.6214 48.7742C49.5881 48.4256 49.5215 48.073 49.4235 47.736C48.9906 46.2693 47.9269 45.27 46.8102 44.3175C46.6261 44.1617 46.4498 43.8442 46.1677 43.9961C45.9071 44.1364 46.0717 44.4675 46.0305 44.713H46.0325Z" fill="#2A2AD7"/>
</g>
<defs>
<clipPath id="clip0_3964_189">
<rect width="97" height="117" fill="white"/>
</clipPath>
</defs>
</svg>
