<svg width="21" height="24" viewBox="0 0 21 24" fill="none" xmlns="http://www.w3.org/2000/svg">
<path d="M0.446507 8.95402C0.451676 6.7866 1.3271 4.69415 2.91094 3.06354C4.49478 1.43292 6.67991 0.37442 9.06235 0.0837206C14.6636 -0.600473 19.7775 2.98571 20.3838 8.03196C20.6199 10.0041 20.167 11.8716 19.0176 13.5418C17.8989 15.1637 16.6247 16.7025 15.4043 18.2698C14.0668 19.9919 12.6862 21.6873 11.3813 23.4285C10.8594 24.1248 10.1177 24.2519 9.48931 23.4328C8.31015 21.8923 7.1118 20.3639 5.90961 18.8381C4.67192 17.2664 3.36131 15.738 2.19462 14.1248C1.07399 12.5713 0.402372 10.8492 0.446507 8.95402ZM10.4881 6.10566C8.64116 6.09269 7.17224 7.37545 7.15305 9.01717C7.13386 10.6589 8.57591 12.0212 10.3758 12.0385C10.8082 12.0455 11.2378 11.9756 11.6401 11.8328C12.0424 11.69 12.4096 11.4771 12.7206 11.2063C13.0317 10.9355 13.2805 10.6121 13.4528 10.2546C13.6252 9.89711 13.7176 9.51249 13.725 9.12273C13.7324 8.73298 13.6545 8.34573 13.4958 7.98312C13.3371 7.62052 13.1007 7.28967 12.8001 7.00948C12.4994 6.72929 12.1405 6.50525 11.7438 6.35017C11.3471 6.19508 10.9204 6.112 10.4881 6.10566Z" fill="#EF4118"/>
</svg>
