<svg width="43" height="54" viewBox="0 0 43 54" fill="none" xmlns="http://www.w3.org/2000/svg">
<path d="M2.004 20.6542C2.01407 16.1387 3.72116 11.7795 6.80965 8.38237C9.89813 4.98526 14.1591 2.78004 18.8049 2.17442C29.7274 0.749014 39.6994 8.22022 40.8818 18.7332C41.3421 22.8419 40.459 26.7325 38.2176 30.2122C36.0361 33.591 33.5515 36.7968 31.1717 40.062C28.5636 43.6499 25.8714 47.1819 23.3269 50.8093C22.3091 52.26 20.8629 52.5249 19.6375 50.8184C17.3381 47.6089 15.0013 44.4248 12.657 41.246C10.2435 37.9717 7.68787 34.7875 5.41282 31.4267C3.22758 28.1903 1.91793 24.6025 2.004 20.6542ZM21.5851 14.7201C17.9836 14.6931 15.1192 17.3655 15.0818 20.7858C15.0443 24.206 17.8563 27.0442 21.3662 27.0802C22.2092 27.0947 23.0469 26.9491 23.8315 26.6516C24.6161 26.3541 25.332 25.9106 25.9386 25.3465C26.5451 24.7824 27.0302 24.1086 27.3663 23.3638C27.7024 22.619 27.8827 21.8177 27.8971 21.0057C27.9115 20.1937 27.7596 19.3869 27.4501 18.6315C27.1406 17.8761 26.6796 17.1868 26.0934 16.6031C25.5072 16.0193 24.8073 15.5526 24.0338 15.2295C23.2602 14.9064 22.4281 14.7333 21.5851 14.7201V14.7201Z" stroke="#B4B4B4" stroke-width="4"/>
</svg>
