<svg width="98" height="95" viewBox="0 0 98 95" fill="none" xmlns="http://www.w3.org/2000/svg">
<path d="M20.0821 38.6614C17.47 42.0406 13.1515 43.4002 9.16122 42.2122L4.37012 48.4426L52.6088 85.9832L50.3511 81.35L15.1073 53.9206L28.496 36.523L22.6943 24.6299L20.7647 27.1379C22.9043 30.7283 22.6943 35.2822 20.0821 38.6614Z" fill="white"/>
<path d="M58.0566 94.788C58.306 94.907 58.5686 94.999 58.8573 94.999C58.9361 94.999 59.0149 94.999 59.0936 94.986C59.5662 94.92 60.0124 94.669 60.3012 94.286L60.8 93.626L58.8311 94.59C58.5817 94.722 58.3192 94.775 58.0566 94.788Z" fill="#264657"/>
<path d="M23.797 17.225L22.7207 18.6242L26.291 16.8686C25.4903 16.301 24.3877 16.4462 23.797 17.225Z" fill="#264657"/>
<path d="M52.6092 85.9835L4.3705 48.4429L9.1616 42.2257C13.1519 43.4137 17.4836 42.0541 20.0825 38.6749C22.6815 35.2957 22.9047 30.7418 20.7651 27.1514L22.6947 24.6434L21.1458 21.449C21.0539 21.2642 21.0145 21.0662 20.9882 20.8682L17.0635 25.9634C16.5516 26.6366 16.5516 27.5738 17.0898 28.2338C19.0193 30.623 19.0718 33.989 17.1948 36.4177C15.3309 38.8465 12.0756 39.6517 9.2928 38.3581C8.5184 38.0017 7.6127 38.2261 7.1008 38.8993L0.380158 47.6509C0.0782582 48.0337 -0.0530116 48.5221 0.0126284 48.9973C0.0782584 49.4725 0.327649 49.9213 0.708309 50.2117L56.2451 93.4418L52.6092 85.9835Z" fill="#264657"/>
<path d="M50.3517 81.3504L39.8114 59.7157C38.2363 59.9269 36.7268 59.5969 35.296 58.4749C32.5264 56.3233 31.8832 52.7065 33.839 48.8917L30.8856 46.5949L32.4345 44.5886L28.5098 36.5366L15.1211 53.9341L50.3517 81.3504Z" fill="#F6ADBF"/>
<path d="M33.8264 48.8916C31.8706 52.7196 32.5269 56.3232 35.2834 58.4748C36.7142 59.5968 38.2237 59.9268 39.7988 59.7156L32.4219 44.5752L30.873 46.5816L33.8264 48.8916Z" fill="white"/>
<path d="M51.9795 8.27489C52.4258 12.8685 50.0237 17.2905 45.8102 19.3629C41.5967 21.4353 36.6613 20.6433 33.3141 17.4753L25.2021 21.4749L58.8576 90.5106L66.9827 86.511C66.5496 81.9306 68.9517 77.5219 73.152 75.4495C77.3524 73.3771 82.2879 74.1691 85.6219 77.3239L93.747 73.3243L60.0915 4.27539L51.9795 8.27489ZM85.9238 63.4903L55.9305 78.2742L33.5241 32.312L63.5174 17.5281L85.9238 63.4903Z" fill="white"/>
<path d="M97.816 73.3512L62.5589 1.02872C62.3488 0.593119 61.9682 0.263119 61.5088 0.104719C61.0494 -0.0536809 60.5506 -0.0272813 60.1174 0.197119L49.1702 5.59586C48.4088 5.96546 48.0019 6.82346 48.1988 7.65506C48.9864 11.0871 47.3456 14.5587 44.2216 16.0899C41.0976 17.6343 37.3697 16.8027 35.1514 14.0835C34.6132 13.4235 33.6944 13.2255 32.9462 13.5951L26.2912 16.8687L22.7209 18.6243L21.9859 18.9939C21.5527 19.2051 21.2245 19.5879 21.067 20.0499C20.9751 20.3139 20.962 20.6043 21.0014 20.8683C21.0277 21.0663 21.067 21.2643 21.1589 21.4491L22.7078 24.6435L28.5096 36.5366L32.4343 44.5886L39.8112 59.7289L50.3515 81.3636L52.6092 85.9968L56.2452 93.4548L56.4027 93.7718C56.7177 94.4188 57.3609 94.8008 58.0435 94.8008C58.0566 94.8008 58.0566 94.8008 58.0697 94.8008C58.3322 94.8008 58.5948 94.7347 58.8442 94.6168L60.8131 93.6528L69.8045 89.2176C70.5658 88.848 70.9596 88.0032 70.7758 87.1716C70.0014 83.7528 71.6422 80.2944 74.7662 78.75C77.8902 77.2188 81.6049 78.0372 83.8233 80.7432C84.3614 81.4032 85.2803 81.6012 86.0285 81.2184L96.989 75.8196C97.881 75.3576 98.249 74.2488 97.816 73.3512ZM85.6216 77.3112C82.2875 74.1564 77.3521 73.3643 73.1517 75.4368C68.9513 77.5092 66.5623 81.918 66.9824 86.4984L58.8573 90.498L25.2018 21.4623L33.3138 17.4627C36.6478 20.6307 41.5964 21.4359 45.8099 19.3503C50.0234 17.2779 52.4123 12.8559 51.9792 8.26226L60.0911 4.26266L93.7467 73.2984L85.6216 77.3112Z" fill="#264657"/>
<path d="M33.5234 32.3122L55.9298 78.2745L85.9231 63.4905L63.5167 17.5151L33.5234 32.3122ZM55.3523 33.6322L56.8618 36.7606C59.2245 35.6914 61.0753 35.4406 62.5848 35.4142L63.4642 39.9418C62.3748 39.9418 60.314 39.9418 57.7806 41.1826C55.4835 42.3046 55.2341 43.7038 55.7198 44.6938C56.2711 45.829 57.8856 46.0138 61.4559 45.6178C66.3782 45.0502 68.9904 46.1986 70.5524 49.4326C72.0881 52.6006 71.1956 56.3625 67.4677 59.0289L69.2397 62.6853L65.7482 64.4013L64.1205 61.0221C61.7053 62.0781 59.0801 62.5269 57.3737 62.4345L56.4286 57.7617C58.3057 57.8541 60.7602 57.5769 63.0573 56.4549C65.105 55.4517 66.0895 53.9602 65.42 52.5742C64.7637 51.2278 63.228 50.9242 60.1433 51.3334C55.746 51.901 52.307 51.3862 50.64 47.941C49.1042 44.773 50.1149 41.2486 53.554 38.701L51.9263 35.3218L55.3523 33.6322Z" fill="#F6ADBF"/>
<path d="M53.5153 38.7006C50.0763 41.2614 49.0787 44.7858 50.6013 47.9405C52.2683 51.3857 55.7074 51.9005 60.1047 51.3329C63.1893 50.9237 64.7251 51.2273 65.3814 52.5737C66.0508 53.9597 65.0663 55.4513 63.0187 56.4545C60.7216 57.5765 58.2801 57.8537 56.39 57.7613L57.335 62.4341C59.0414 62.5265 61.6667 62.0777 64.0819 61.0217L65.7095 64.4009L69.2011 62.6849L67.4291 59.0285C71.17 56.3621 72.0495 52.5869 70.5137 49.4321C68.9517 46.1982 66.3396 45.0498 61.4173 45.6174C57.847 46.0002 56.2324 45.8286 55.6811 44.6934C55.1955 43.7034 55.4449 42.3042 57.7419 41.1822C60.2884 39.9414 62.3361 39.9414 63.4256 39.9414L62.5461 35.4138C61.0366 35.4534 59.1858 35.691 56.8231 36.7602L55.3136 33.6318L51.8483 35.3214L53.5153 38.7006Z" fill="white"/>
</svg>
