<svg width="108" height="108" viewBox="0 0 108 108" fill="none" xmlns="http://www.w3.org/2000/svg">
<path d="M98.7087 51.5543L92.127 43.2881L87.2187 37.128C86.4436 36.1542 84.8825 36.7091 84.8825 37.9547V45.5189H74.2236L78.9634 59.2203H84.8712V66.7846C84.8712 68.0416 86.4325 68.585 87.2074 67.6112L92.1156 61.4512L98.6975 53.1849C99.0906 52.732 99.0906 52.0412 98.7087 51.5543Z" fill="#F6B8C8"/>
<path d="M10.1344 45.5411C9.50542 45.5411 9 46.0507 9 46.6735V58.0877C9 58.7218 9.50542 59.2314 10.1344 59.2314H26.7125L21.9726 45.5298H10.1344V45.5411Z" fill="#F6B8C8"/>
<path d="M59.5875 12.9971C59.4864 12.7027 59.2731 12.4649 59.0034 12.3291C58.8463 12.2498 58.6778 12.2158 58.498 12.2158C58.3745 12.2158 58.2397 12.2385 58.1162 12.2838L19.726 25.7928C19.1196 26.0079 18.8051 26.6761 19.0184 27.2762L42.4702 95.014C42.5714 95.3084 42.7849 95.5462 43.0543 95.6821C43.3351 95.818 43.6496 95.8405 43.9417 95.7273L82.3318 82.207C82.6239 82.1051 82.8597 81.89 82.9945 81.6182C83.1292 81.3351 83.1517 81.0181 83.0394 80.7236L59.5875 12.9971ZM36.0009 21.7164L44.2225 18.8175C44.6268 18.6816 45.1434 19.1006 45.3681 19.7799C45.604 20.4481 45.4692 21.1162 45.0649 21.2521L36.8433 24.1509C36.4388 24.2868 35.9222 23.8677 35.6976 23.1884C35.4618 22.5089 35.5966 21.8523 36.0009 21.7164ZM79.3555 76.5791C79.2318 76.8396 79.0185 77.0322 78.7489 77.1227L44.3572 89.2277C44.2449 89.2729 44.1214 89.2842 44.0091 89.2842C43.5711 89.2842 43.1555 89.0011 42.9982 88.5595L23.2416 31.5566C23.1517 31.2848 23.1629 30.9903 23.2866 30.7412C23.41 30.4921 23.6235 30.2883 23.893 30.1978L58.2958 18.0701C58.8463 17.8776 59.4641 18.172 59.6549 18.7269L79.4115 75.7412C79.5015 76.0243 79.479 76.3186 79.3555 76.5791Z" fill="white"/>
<path d="M62.5868 11.933C62.205 10.8346 61.4188 9.94008 60.3742 9.43052C59.3297 8.92096 58.1503 8.85301 57.0608 9.23801L18.6708 22.7584C16.4132 23.5511 15.2226 26.0536 16.0088 28.3295L21.9729 45.5302L26.7126 59.2318L39.4719 96.0675C39.8539 97.1658 40.6401 98.0603 41.6847 98.5698C42.2799 98.8643 42.9202 99.0116 43.5603 99.0116C44.0432 99.0116 44.5261 98.9322 44.9979 98.7624L83.3881 85.2421C84.4775 84.8571 85.3649 84.0644 85.8703 83.0114C86.3758 81.9582 86.4431 80.7693 86.0613 79.6707L78.9851 59.2318L74.2454 45.5302L62.5868 11.933ZM82.995 81.6185C82.8602 81.9015 82.6244 82.1054 82.3323 82.2073L43.9534 95.7276C43.6614 95.8295 43.347 95.8184 43.0662 95.6825C42.7854 95.5466 42.5832 95.3088 42.4821 95.0143L19.0077 27.2765C18.7942 26.6651 19.12 26.0083 19.7153 25.7931L58.1053 12.2727C58.229 12.2275 58.3638 12.2048 58.4873 12.2048C58.6558 12.2048 58.8243 12.2501 58.9927 12.318C59.2735 12.4539 59.4757 12.6917 59.5768 12.9861L83.0398 80.7239C83.1522 81.0184 83.1296 81.3354 82.995 81.6185Z" fill="#264657"/>
<path d="M57.9924 20.46L25.6113 31.8628L44.6604 86.8501L77.0415 75.4473L57.9924 20.46ZM56.8356 68.5399C48.7262 71.3935 39.8644 67.0792 37.0341 58.9148C34.2036 50.7392 38.4829 41.8049 46.581 38.9514C54.6903 36.0978 63.5523 40.4121 66.3826 48.5763C69.2131 56.7521 64.9338 65.6864 56.8356 68.5399Z" fill="#F6B8C8"/>
<path d="M59.6554 18.7385C59.4644 18.1724 58.8578 17.8779 58.2964 18.0817L23.9047 30.1867C23.6351 30.2772 23.4218 30.481 23.2983 30.7301C23.1746 30.9792 23.1635 31.285 23.2533 31.5455L43.0099 88.5598C43.1672 89.0015 43.5715 89.2845 44.0208 89.2845C44.1331 89.2845 44.2566 89.262 44.3689 89.2279L78.7493 77.1229C79.0189 77.0324 79.2324 76.8286 79.3559 76.5795C79.4793 76.3304 79.4907 76.0246 79.4009 75.7641L59.6554 18.7385ZM44.661 86.85L25.612 31.8625L57.9931 20.4597L77.0421 75.4471L44.661 86.85Z" fill="#264657"/>
<path d="M66.383 48.5879C63.5525 40.4123 54.6907 36.1094 46.5813 38.9629C38.472 41.8164 34.204 50.7507 37.0343 58.9263C39.8648 67.1021 48.7266 71.405 56.8359 68.5515C64.934 65.6866 69.2133 56.7523 66.383 48.5879ZM55.7016 61.3157L56.6225 63.9654L54.0954 64.86L53.253 62.414C51.5121 62.9349 49.6813 63.0368 48.5244 62.8331L48.2436 59.5491C49.5242 59.7644 51.2201 59.7756 52.8711 59.1868C54.3537 58.6659 55.14 57.7261 54.7919 56.7183C54.4549 55.7445 53.4215 55.4048 51.2874 55.4387C48.2325 55.4727 45.9299 54.8385 45.065 52.3473C44.2676 50.0601 45.2448 47.7273 47.7944 46.2439L46.952 43.7981L49.4567 42.9148L50.2429 45.1796C51.9502 44.636 53.2305 44.6246 54.2639 44.7153L54.5111 47.8972C53.7696 47.8067 52.3545 47.6481 50.5237 48.2936C48.8614 48.8823 48.5918 49.811 48.8389 50.5356C49.1197 51.3622 50.2092 51.6113 52.6803 51.634C56.0947 51.6453 57.7795 52.6418 58.5994 54.9858C59.3631 57.2844 58.4646 59.7983 55.7016 61.3157Z" fill="white"/>
<path d="M58.5766 54.9966C57.7679 52.6526 56.0719 51.6561 52.6575 51.6448C50.1865 51.6223 49.0971 51.3732 48.8163 50.5464C48.5692 49.8218 48.8386 48.8933 50.5009 48.3044C52.343 47.6589 53.747 47.8288 54.4883 47.908L54.2411 44.7261C53.2078 44.6243 51.9274 44.6469 50.2201 45.1904L49.4339 42.9258L46.9294 43.8089L47.7716 46.2549C45.2221 47.7269 44.2562 50.0595 45.0424 52.3583C45.9071 54.8609 48.2209 55.4837 51.2647 55.4496C53.3987 55.4156 54.4321 55.7439 54.7691 56.7293C55.1172 57.7369 54.331 58.6769 52.8485 59.1978C51.1862 59.7866 49.49 59.7752 48.2209 59.5601L48.5017 62.8439C49.6585 63.0365 51.4893 62.9459 53.2303 62.425L54.0727 64.8708L56.5999 63.9762L55.6788 61.3266C58.4643 59.7979 59.3629 57.284 58.5766 54.9966Z" fill="#F6ADBF"/>
<path d="M36.8442 24.1397L45.0659 21.2408C45.4702 21.1051 45.605 20.4369 45.3692 19.7688C45.1332 19.1008 44.6278 18.6704 44.2235 18.8063L36.0018 21.7052C35.5975 21.8411 35.4627 22.5091 35.6985 23.1773C35.9232 23.8566 36.4399 24.287 36.8442 24.1397Z" fill="#264657"/>
</svg>
