<svg width="163" height="78" viewBox="0 0 163 78" fill="none" xmlns="http://www.w3.org/2000/svg">
<path d="M150.808 0L72.9784 14.9939L3.11167 8.10079L0 59.664L25.1066 73.7464L103.845 57.2638L155.931 56.5422L163 42.3991L150.808 0Z" fill="#2A2AD7"/>
<path d="M125.05 23.0718C125.262 23.0486 125.461 22.9612 125.623 22.8209C125.784 22.6806 125.9 22.494 125.955 22.2857L126.442 17.1548C120.974 17.5346 113.883 18.4081 108.609 18.784C108.639 19.217 108.505 23.4174 108.609 27.0557L125.065 23.0718H125.05Z" fill="white"/>
<path d="M127.949 41.552C127.896 41.1077 127.608 40.7924 127.287 40.8228C124.71 41.0773 109.305 40.2949 109.305 40.2949C109.402 45.2625 109.473 48.5628 109.473 48.5628C115.353 47.9856 122.896 47.2298 128.547 46.6639L127.949 41.552Z" fill="white"/>
<path d="M57.0947 35.6504C55.9727 32.2058 54.8844 28.7535 53.7699 25.2823L43.7168 25.0544C42.6658 25.0316 42.4339 25.5671 42.3853 25.7456C40.6761 33.7705 38.2115 44.8336 36.4013 53.2458L42.5574 51.9621C43.1819 48.4035 43.9711 43.9867 44.3787 41.5636C46.6227 41.5332 48.0626 41.4839 50.2318 41.5294C50.2318 41.5294 53.3921 51.9545 54.3046 55.5814C54.3425 55.7307 54.4323 55.861 54.5574 55.9483C54.6826 56.0356 54.8346 56.0739 54.9854 56.0562L63.4302 54.4573C61.837 49.4517 58.7216 40.6559 57.0947 35.6504Z" fill="white"/>
<path d="M99.465 19.817C99.3226 19.8311 99.1893 19.8948 99.0877 19.9972C98.9862 20.0996 98.9226 20.2345 98.9078 20.3791C98.8517 20.9336 95.1229 42.4066 95.1042 42.5433C95.0743 42.4066 90.7284 20.7703 90.6461 20.2196C90.6238 20.0757 90.5531 19.9442 90.4461 19.8472C90.339 19.7503 90.2023 19.694 90.059 19.6879L86.5359 20.7133C87.224 23.8351 92.95 49.9566 92.95 49.9566L99.6558 49.3376C99.6558 49.3376 104.581 22.392 105.109 19.2397L99.465 19.817Z" fill="white"/>
<path d="M28.4277 54.2519C28.4491 54.4477 28.3948 54.6443 28.2761 54.8002C28.1575 54.9561 27.9839 55.0591 27.7919 55.0874L16.6392 57.2256C16.052 52.1745 15.2405 44.2408 14.5187 36.9831C14.5187 36.9831 33.7684 34.1271 36.4238 33.603C36.6414 35.0267 36.775 36.4623 36.8239 37.9022C31.4832 39.2314 31.214 39.3416 26.9392 40.0973C27.5338 45.2738 27.8068 49.0336 28.4277 54.2519Z" fill="white"/>
<path d="M139.79 27.2494C139.79 27.2494 135.485 22.6047 143.444 15.3698C143.799 15.0394 143.473 14.8533 143.343 14.7963L136.192 12.0049C136.192 12.0049 130.069 17.0256 130.279 24.0972C130.369 27.2228 130.713 29.4977 136.857 35.1413C139.307 37.3896 137.276 40.9216 133.57 45.4714L141.304 50.7884C141.996 49.9187 146.761 41.8939 146.761 37.2415C146.753 32.0575 144.18 32.1866 139.79 27.2494Z" fill="white"/>
<path d="M37.2615 19.7944L24.3548 21.5262L13.1348 23.0454C12.7234 23.1023 12.6711 23.2998 12.6748 23.4252L13.8342 31.9247L37.8001 26.961L37.2615 19.7944Z" fill="white"/>
<path d="M124.51 29.2695L109.31 30.292L109.722 36.6091L124.922 35.5867L124.51 29.2695Z" fill="white"/>
<path d="M81.73 22.1338L76.494 23.6263L77.0139 26.4785C77.459 28.9357 78.1022 32.5892 78.5772 35.6693C79.4748 41.5179 80.032 45.1639 75.6824 45.9576C71.9686 46.626 70.8691 43.6789 69.6461 37.1049C68.6849 31.9474 67.8845 27.409 67.634 26.1899C67.6017 26.0308 67.5155 25.8883 67.3905 25.787C67.2655 25.6857 67.1095 25.632 66.9496 25.6354C66.6242 25.6354 61.1376 25.4721 61.1376 25.4721C61.1376 25.4721 62.9328 34.7502 63.6023 38.3543C64.5822 43.584 65.2217 52.8393 76.2883 50.572C79.991 49.8376 83.4206 48.0746 86.1955 45.4791L81.73 22.1338Z" fill="white"/>
</svg>
